# xmcd
#
# Track frame offsets:
#        150
#        24942
#        49732
#        67105
#
# Disc length: 1212 seconds
#
# Revision: 0
# Processed by: cddbd v1.5.1PL0 Copyright (c) Steve Scherf et al.
# Submitted via: ExactAudioCopy v0.95a4
#
DISCID=2e04ba04
DTITLE=TRUE KiSS DESTiNATiON - AFRiCA
DYEAR=1999
DGENRE=JPop
TTITLE0=AFRiCA (Original)
TTITLE1=AFRiCA (Instrumental)
TTITLE2=AFRiCA (Funkmaster Flex Remix)
TTITLE3=PRECiOUS MOMENTS --WHEN WILL I SEE YOU AGAIN--
EXTD=
EXTT0=
EXTT1=
EXTT2=
EXTT3=
PLAYORDER=
